<svg width="21" height="14" viewBox="0 0 21 14" fill="none" xmlns="http://www.w3.org/2000/svg">
<rect y="2.625" width="17.5" height="11.375" rx="2" fill="#DB4D37"/>
<rect y="2.625" width="17.5" height="11.375" rx="2" stroke="white"/>
<mask id="path-2-inside-1_102_7" fill="white">
<path d="M2.625 2C2.625 0.89543 3.52043 0 4.625 0H18.125C19.2296 0 20.125 0.895431 20.125 2V9.375C20.125 10.4796 19.2296 11.375 18.125 11.375H4.625C3.52043 11.375 2.625 10.4796 2.625 9.375V2Z"/>
</mask>
<path d="M2.625 2C2.625 0.89543 3.52043 0 4.625 0H18.125C19.2296 0 20.125 0.895431 20.125 2V9.375C20.125 10.4796 19.2296 11.375 18.125 11.375H4.625C3.52043 11.375 2.625 10.4796 2.625 9.375V2Z" fill="#F07E26"/>
<path d="M2.625 0H20.125H2.625ZM20.125 9.375C20.125 11.308 18.558 12.875 16.625 12.875H4.625C2.692 12.875 1.125 11.308 1.125 9.375H4.125C4.125 9.65114 4.34886 9.875 4.625 9.875H18.125C19.2296 9.875 20.125 9.65114 20.125 9.375ZM4.625 12.875C2.692 12.875 1.125 11.308 1.125 9.375V3.5C1.125 1.567 2.692 0 4.625 0C4.34886 0 4.125 0.895431 4.125 2V9.375C4.125 9.65114 4.34886 9.875 4.625 9.875V12.875ZM20.125 0V11.375V0Z" fill="white" mask="url(#path-2-inside-1_102_7)"/>
</svg>
